<?xml version="1.0" encoding="UTF-8"?>
<svg id="Layer_1" data-name="Layer 1" xmlns="http://www.w3.org/2000/svg" viewBox="0 0 190.62 49.37">
  <defs>
    <style>
      .cls-1 {
        fill: #022728;
        stroke-width: 0px;
      }
    </style>
  </defs>
  <path class="cls-1" d="M17.26,26.63h-6.99l3.71-12.08,3.28,12.08ZM6.99,38.84l2.18-7.36h8.96l2.18,7.36h7.43l-7.86-27.94c-.44-1.83-1.31-2.42-3.28-2.42H5.68v2.51h.87c1.31,0,1.97.42,1.97,1.42,0,.63,0,1.05-.66,2.56L0,38.84"/>
  <path class="cls-1" d="M37.14,38.84V10.71c0-1.46-.87-2.23-2.4-2.23h-6.77v2.51h.44c1.31,0,1.97.55,1.97,1.73v26.13"/>
  <path class="cls-1" d="M49.37,38.84V10.71c0-1.46-.87-2.23-2.4-2.23h-6.77v2.51h.44c1.31,0,1.97.55,1.97,1.73v26.13"/>
  <path class="cls-1" d="M61.82,11.17c0-2.01-1.53-3.19-3.93-3.19-2.62,0-3.93,1.18-3.93,3.19s1.31,3.26,3.93,3.26c2.4,0,3.93-1.2,3.93-3.26M61.6,38.84v-20.49c0-1.42-.87-2.25-2.18-2.25h-6.77v2.47h.44c1.31,0,1.75.55,1.75,1.79v18.48"/>
  <path class="cls-1" d="M77.77,27.81v4.54c-1.31,1.31-2.84,2.05-4.15,2.05s-1.97-.63-1.97-2.34c0-1.88.44-2.6,1.97-3.19,1.09-.46,2.18-.74,4.15-1.07M68.16,22.37l.66-.26c1.75-.7,2.84-.96,4.15-1.2.66-.09,1.53-.17,1.97-.17,2.18,0,2.84.72,2.84,2.73v.57c-3.06.5-3.93.68-5.68,1.05-.87.22-1.75.5-2.62.87-2.84,1.14-4.15,3.32-4.15,6.75,0,4.3,1.75,6.36,5.68,6.36,1.53,0,3.06-.35,4.15-1.05,1.09-.5,1.53-.76,2.84-1.97v.7c0,1.42.66,2.1,1.97,2.1h6.55v-2.34h-.22c-1.31,0-1.97-.59-1.97-1.77v-11.16c0-5.81-1.97-7.78-7.65-7.78-1.97,0-3.71.22-5.46.63-1.75.42-2.62.72-4.59,1.75"/>
  <path class="cls-1" d="M96.77,38.84v-15.42c1.53-1.42,2.62-1.97,4.15-1.97s1.97.66,1.97,2.97v14.42h6.77v-15.51c0-3.19-.44-4.57-1.31-5.77-1.09-1.18-2.4-1.73-4.37-1.73-2.62,0-4.59.96-7.65,3.6v-1.22c0-1.42-.66-2.12-1.97-2.12h-6.55v2.47h.22c1.31,0,1.97.55,1.97,1.79v18.48"/>
  <g>
    <path class="cls-1" d="M130.64,34.49h-10.05l9.61-13.72v-4.68h-14.42c-1.75,0-2.4.7-2.4,2.38v4.13h2.4v-.46c0-1.25.66-1.75,1.97-1.75h5.24l-9.83,13.72v4.72h17.48"/>
    <path class="cls-1" d="M169.3,37.6V11.86c0-2.07-.87-2.75-2.84-2.75h-5.9v2.84h.66c1.09,0,1.53.42,1.53,1.68v23.96h6.55ZM172.8,37.6h6.34v-19.42c0-1.97-.87-2.75-2.84-2.75h-3.5v22.17ZM159.25,37.6V15.42h-3.5c-1.97,0-2.84.79-2.84,2.75v19.42h6.34ZM186.56,24.66c0,12.04-8.74,20.82-20.53,20.82s-20.53-8.78-20.53-20.82,8.74-20.82,20.53-20.82,20.53,8.78,20.53,20.82M190.71,24.66c0-14.09-10.49-24.66-24.69-24.66s-24.68,10.57-24.68,24.66,10.7,24.71,24.68,24.71,24.69-10.57,24.69-24.71"/>
  </g>
</svg>