<?xml version="1.0" encoding="UTF-8"?>
<svg id="Layer_1" data-name="Layer 1" xmlns="http://www.w3.org/2000/svg" viewBox="0 0 51.06 18.8">
  <defs>
    <style>
      .cls-1 {
        fill: #fff;
        stroke-width: 0px;
      }
    </style>
  </defs>
  <path class="cls-1" d="M50.83,6.94c-.21-.91-.77-1.68-1.57-2.17-.79-.49-1.73-.64-2.64-.43l-10.8,2.55L22.24.26c-.78-.38-1.71-.25-2.36.33-.8.72-.94,1.93-.32,2.81l4.41,6.29L3.69,14.48l8.26,2.84c.36.12.74-.07.87-.42.12-.36-.07-.74-.42-.87l-3.8-1.31L46.94,5.67c.55-.13,1.13-.04,1.61.26.49.3.82.77.96,1.33.13.56.04,1.13-.26,1.62-.3.48-.77.82-1.32.95l-28.19,6.65c-.37.09-.59.45-.51.82.07.31.35.52.66.52.05,0,.1,0,.16-.02l28.19-6.65c.91-.21,1.68-.77,2.17-1.56.49-.8.64-1.73.43-2.64ZM20.68,2.62c-.22-.32-.17-.75.12-1.01.23-.21.57-.26.85-.12l12.09,5.9-8.33,1.97-4.73-6.73Z"/>
  <path class="cls-1" d="M2.94,13.54L.4,10.07C-.14,9.32,0,8.29.73,7.72c.56-.44,1.34-.48,1.94-.12l6.94,4.2-6.66,1.74ZM1.78,8.72c-.08,0-.15.02-.21.07-.15.12-.18.33-.07.48l1.99,2.72,2.65-.69-4.18-2.53c-.05-.03-.12-.05-.18-.05Z"/>
  <circle class="cls-1" cx="16.02" cy="18.06" r=".71"/>
</svg>