<?xml version="1.0" encoding="UTF-8"?>
<svg id="Layer_1" data-name="Layer 1" xmlns="http://www.w3.org/2000/svg" viewBox="0 0 156 190.91">
  <defs>
    <style>
      .cls-1 {
        fill: #fff;
        stroke-width: 0px;
      }
    </style>
  </defs>
  <path class="cls-1" d="M78,190.91l-1.62-.59C29.27,173.26,0,141.12,0,106.45V31.6L78,0l48.03,19.46c2.44.99,3.61,3.76,2.63,6.2-.99,2.44-3.76,3.6-6.2,2.63l-44.46-18.01L9.52,38.02v68.44c0,30.16,26.19,58.53,68.48,74.32,42.29-15.79,68.48-44.15,68.48-74.32v-43.21c0-2.63,2.13-4.76,4.76-4.76s4.76,2.13,4.76,4.76v43.21c0,34.67-29.27,66.8-76.38,83.87l-1.62.59Z"/>
  <path class="cls-1" d="M70.25,119.77c-2.19,0-4.22-1-5.55-2.74l-13.73-17.92c-1.6-2.09-1.2-5.08.88-6.67,2.09-1.6,5.07-1.21,6.67.88l11.72,15.3,27.23-35.54c1.6-2.09,4.59-2.49,6.67-.88,2.09,1.6,2.48,4.59.88,6.67l-29.23,38.15c-1.34,1.74-3.36,2.74-5.56,2.74Z"/>
  <circle class="cls-1" cx="150.9" cy="35.11" r="4.64"/>
</svg>