<?xml version="1.0" encoding="UTF-8"?>
<svg id="Layer_1" data-name="Layer 1" xmlns="http://www.w3.org/2000/svg" viewBox="0 0 27.46 25.3">
  <defs>
    <style>
      .cls-1 {
        fill: #fff;
        stroke-width: 0px;
      }
    </style>
  </defs>
  <path class="cls-1" d="M23.37,22.23c.33,0,.6-.27.6-.6v-9.48c0-.33-.27-.6-.6-.6s-.6.27-.6.6v9.48c0,.33.27.6.6.6Z"/>
  <path class="cls-1" d="M20.63,24.1h-3.67v-5.4h-6.45v5.4h-5.35v-11.95c0-.33-.27-.6-.6-.6s-.6.27-.6.6v13.15h7.73v-5.4h4.06v5.4h4.87c.33,0,.6-.27.6-.6s-.27-.6-.6-.6Z"/>
  <path class="cls-1" d="M23.37,24.04c-.36,0-.66.29-.66.66s.29.66.66.66.66-.29.66-.66-.29-.66-.66-.66Z"/>
  <path class="cls-1" d="M19.04,3.1c.33,0,.6-.27.6-.6v-1.33h2.95v4.6c0,.33.27.6.6.6s.6-.27.6-.6V1.06c0-.57-.46-1.03-1.02-1.03h-3.29c-.56,0-1.02.46-1.02,1.03v1.45c0,.33.27.6.6.6Z"/>
  <path class="cls-1" d="M27.25,11.32L13.8.06l-.07-.06L.21,11.32c-.12.1-.2.25-.21.4-.01.16.03.31.14.44.21.25.59.29.84.07L13.73,1.56l12.75,10.68c.11.09.24.14.38.14.18,0,.34-.08.46-.21.1-.12.15-.28.14-.44s-.09-.3-.21-.4Z"/>
</svg>