<?xml version="1.0" encoding="UTF-8"?>
<svg xmlns="http://www.w3.org/2000/svg" xmlns:xlink="http://www.w3.org/1999/xlink" viewBox="0 0 17.8 14.59">
  <defs>
    <style>
      .cls-1 {
        fill: none;
      }

      .cls-1, .cls-2 {
        stroke-width: 0px;
      }

      .cls-2 {
        fill: #fff;
      }

      .cls-3 {
        clip-path: url(#clippath);
      }
    </style>
    <clipPath id="clippath">
      <rect class="cls-1" x="-1075.44" y="-10.79" width="960" height="1903.34"/>
    </clipPath>
  </defs>
  <g id="Layer_1" data-name="Layer 1">
    <g>
      <g>
        <path class="cls-2" d="M3.46,9.7c-.99,0-1.79-.8-1.79-1.79s.8-1.79,1.79-1.79,1.79.8,1.79,1.79-.8,1.79-1.79,1.79ZM3.46,6.89c-.56,0-1.02.46-1.02,1.02s.46,1.02,1.02,1.02,1.02-.46,1.02-1.02-.46-1.02-1.02-1.02Z"/>
        <path class="cls-2" d="M14.34,9.7c-.99,0-1.79-.8-1.79-1.79s.8-1.79,1.79-1.79,1.79.8,1.79,1.79-.8,1.79-1.79,1.79ZM14.34,6.89c-.56,0-1.02.46-1.02,1.02s.46,1.02,1.02,1.02,1.02-.46,1.02-1.02-.46-1.02-1.02-1.02Z"/>
      </g>
      <path class="cls-2" d="M16.69,4.4h-.93c-.08,0-.14-.05-.17-.13l-.62-1.64c-.08-.2-.3-.3-.5-.22-.2.08-.3.3-.22.5l.62,1.63c.13.38.49.64.9.64h.93c.19,0,.34.15.34.34v5.5c0,.19-.15.34-.34.34H1.12c-.19,0-.34-.15-.34-.34v-5.5c0-.19.15-.34.34-.34h.93c.41,0,.77-.26.89-.63l1.35-3.54c.05-.13.18-.22.32-.22h6.88c.21,0,.39-.17.39-.39s-.17-.39-.39-.39h-6.88c-.46,0-.88.29-1.04.72l-1.36,3.56c-.02.07-.09.12-.16.12h-.93c-.62,0-1.12.5-1.12,1.12v5.5c0,.62.5,1.12,1.12,1.12h.89v1.34c0,.62.5,1.12,1.12,1.12h1.45c.62,0,1.12-.5,1.12-1.12v-1.34h6.43v1.34c0,.62.5,1.12,1.12,1.12h1.45c.62,0,1.12-.5,1.12-1.12v-1.34h.89c.62,0,1.12-.5,1.12-1.12v-5.5c0-.62-.5-1.12-1.12-1.12ZM4.92,13.47c0,.19-.15.34-.34.34h-1.45c-.19,0-.34-.15-.34-.34v-1.34h2.14v1.34ZM15.03,13.47c0,.19-.15.34-.34.34h-1.45c-.19,0-.34-.15-.34-.34v-1.34h2.14v1.34Z"/>
      <path class="cls-2" d="M12.09,4.57h-6.38c-.31,0-.59-.15-.76-.41s-.19-.58-.06-.86h0s.5-1.11.5-1.11c.15-.32.47-.53.82-.53h5.35c.35,0,.67.2.81.51l.53,1.11c.13.28.12.61-.05.87-.17.26-.45.42-.76.42ZM5.5,3.57c-.05.11,0,.19.02.23.02.03.08.11.2.11h6.38c.12,0,.18-.08.2-.11.02-.03.06-.12.01-.23l-.53-1.11c-.04-.08-.12-.13-.21-.13h-5.35c-.09,0-.18.05-.22.14l-.5,1.11Z"/>
      <circle class="cls-2" cx="13.68" cy=".57" r=".39"/>
    </g>
  </g>
  <g id="Imagens">
    <g class="cls-3">
      <image width="6240" height="4160" transform="translate(-1940.09 -10.8) scale(.46)" xlink:href="Imagem/Familia em Casa.jpg"/>
    </g>
  </g>
</svg>