<?xml version="1.0" encoding="UTF-8"?>
<svg id="Layer_1" data-name="Layer 1" xmlns="http://www.w3.org/2000/svg" viewBox="0 0 25.85 21.23">
  <defs>
    <style>
      .cls-1 {
        fill: #fff;
        stroke-width: 0px;
      }
    </style>
  </defs>
  <g>
    <path class="cls-1" d="M5.02,14.14c-1.43,0-2.6-1.17-2.6-2.6s1.17-2.6,2.6-2.6,2.6,1.17,2.6,2.6-1.17,2.6-2.6,2.6ZM5.02,10.07c-.82,0-1.48.66-1.48,1.48s.66,1.48,1.48,1.48,1.48-.66,1.48-1.48-.66-1.48-1.48-1.48Z"/>
    <path class="cls-1" d="M20.82,14.14c-1.43,0-2.6-1.17-2.6-2.6s1.17-2.6,2.6-2.6,2.6,1.17,2.6,2.6-1.17,2.6-2.6,2.6ZM20.82,10.07c-.82,0-1.48.66-1.48,1.48s.66,1.48,1.48,1.48,1.48-.66,1.48-1.48-.66-1.48-1.48-1.48Z"/>
  </g>
  <path class="cls-1" d="M24.23,6.44h-1.36c-.11,0-.21-.07-.25-.19l-.9-2.38c-.11-.29-.43-.44-.72-.33-.29.11-.44.43-.33.72l.9,2.36c.19.56.71.93,1.3.93h1.36c.28,0,.5.22.5.5v7.98c0,.28-.22.5-.5.5H1.62c-.28,0-.5-.22-.5-.5v-7.98c0-.27.22-.5.5-.5h1.36c.59,0,1.12-.38,1.29-.92l1.96-5.15c.07-.19.26-.32.47-.32h9.98c.31,0,.56-.25.56-.56s-.25-.56-.56-.56H6.69c-.67,0-1.28.42-1.51,1.04l-1.97,5.17c-.03.1-.13.17-.23.17h-1.36c-.89,0-1.62.73-1.62,1.62v7.98c0,.89.73,1.62,1.62,1.62h1.29v1.95c0,.89.73,1.62,1.62,1.62h2.1c.89,0,1.62-.73,1.62-1.62v-1.95h9.33v1.95c0,.89.73,1.62,1.62,1.62h2.1c.89,0,1.62-.73,1.62-1.62v-1.95h1.29c.89,0,1.62-.73,1.62-1.62v-7.98c0-.89-.73-1.62-1.62-1.62ZM7.14,19.61c0,.28-.22.5-.5.5h-2.1c-.28,0-.5-.22-.5-.5v-1.95h3.1v1.95ZM21.81,19.61c0,.28-.22.5-.5.5h-2.1c-.28,0-.5-.22-.5-.5v-1.95h3.1v1.95Z"/>
  <path class="cls-1" d="M17.55,6.69h-9.26c-.45,0-.86-.22-1.1-.6s-.28-.84-.09-1.25h0s.73-1.61.73-1.61c.21-.47.68-.77,1.19-.77h7.77c.5,0,.97.29,1.18.75l.77,1.61c.19.41.17.88-.07,1.26-.24.38-.66.61-1.11.61ZM7.98,5.24c-.07.15,0,.28.02.33.03.05.12.16.29.16h9.26c.17,0,.26-.11.29-.16.03-.05.09-.18.02-.33l-.77-1.61c-.06-.12-.18-.2-.31-.2h-7.77c-.13,0-.26.08-.31.2l-.73,1.61Z"/>
  <circle class="cls-1" cx="19.85" cy=".89" r=".56"/>
</svg>