<?xml version="1.0" encoding="UTF-8"?>
<svg id="Imagens" xmlns="http://www.w3.org/2000/svg" viewBox="0 0 224.02 234.04">
  <defs>
    <style>
      .cls-1 {
        fill: #fff;
        stroke-width: 0px;
      }
    </style>
  </defs>
  <path class="cls-1" d="M82.32,139.34c23.4,0,42.44-19.04,42.44-42.44s-19.04-42.44-42.44-42.44-42.44,19.04-42.44,42.44,19.04,42.44,42.44,42.44ZM48.4,96.9c0-18.71,15.22-33.92,33.92-33.92s33.92,15.22,33.92,33.92-15.22,33.92-33.92,33.92-33.92-15.22-33.92-33.92Z"/>
  <path class="cls-1" d="M158.89,214.32c2.3-.59,3.69-2.95,3.1-5.24-9.35-36.33-42.11-61.7-79.67-61.7C36.96,147.37.06,184.27.06,229.63c0,2.37,1.93,4.3,4.3,4.3s4.3-1.93,4.3-4.3c0-40.61,33.04-73.65,73.65-73.65,33.63,0,62.96,22.72,71.33,55.24.59,2.29,2.95,3.68,5.24,3.1Z"/>
  <path class="cls-1" d="M160.27,225.37c-2.35,0-4.26,1.91-4.26,4.26s1.91,4.26,4.26,4.26,4.26-1.91,4.26-4.26-1.91-4.26-4.26-4.26Z"/>
  <path class="cls-1" d="M211.01,29.53h-8.07c-1.55,0-2.81,1.26-2.81,2.81s1.26,2.81,2.81,2.81h8.07c4.03,0,7.31,3.28,7.31,7.31v14.22c0,4.03-3.28,7.31-7.31,7.31h-20.78v20.78c0,4.03-3.28,7.31-7.31,7.31h-14.22c-4.03,0-7.31-3.28-7.31-7.31v-20.78h-20.78c-4.03,0-7.31-3.28-7.31-7.31v-14.22c0-4.03,3.28-7.31,7.31-7.31h20.78V14.38c0-4.03,3.28-7.31,7.31-7.31h14.22c4.03,0,7.31,3.28,7.31,7.31v8.85c0,1.55,1.26,2.81,2.81,2.81s2.81-1.26,2.81-2.81v-8.85c0-7.13-5.8-12.93-12.93-12.93h-14.22c-7.13,0-12.93,5.8-12.93,12.93v15.15h-15.16c-7.13,0-12.93,5.8-12.93,12.93v14.22c0,7.13,5.8,12.93,12.93,12.93h15.16v15.15c0,7.13,5.8,12.93,12.93,12.93h14.22c7.13,0,12.93-5.8,12.93-12.93v-15.15h15.16c7.13,0,12.93-5.8,12.93-12.93v-14.22c0-7.13-5.8-12.93-12.93-12.93Z"/>
  <path class="cls-1" d="M193.24,29.34c-1.52,0-2.75,1.23-2.75,2.75s1.23,2.75,2.75,2.75,2.75-1.23,2.75-2.75-1.23-2.75-2.75-2.75Z"/>
</svg>