<?xml version="1.0" encoding="UTF-8"?>
<svg id="Layer_1" data-name="Layer 1" xmlns="http://www.w3.org/2000/svg" viewBox="0 0 190.91 190.91">
  <defs>
    <style>
      .cls-1 {
        fill: #fff;
        stroke-width: 0px;
      }
    </style>
  </defs>
  <path class="cls-1" d="M109.7,190.91h-28.5c-13.75,0-24.93-11.18-24.93-24.93v-31.34h-31.34c-13.75,0-24.93-11.18-24.93-24.93v-28.5c0-13.75,11.18-24.93,24.93-24.93h31.34v-31.34c0-13.75,11.18-24.93,24.93-24.93h28.5c13.75,0,24.93,11.18,24.93,24.93v17.74c0,2.57-2.08,4.66-4.66,4.66s-4.66-2.08-4.66-4.66v-17.74c0-8.61-7.01-15.62-15.62-15.62h-28.5c-8.61,0-15.62,7.01-15.62,15.62v40.65H24.93c-8.61,0-15.62,7.01-15.62,15.62v28.5c0,8.61,7.01,15.62,15.62,15.62h40.65v40.65c0,8.61,7.01,15.62,15.62,15.62h28.5c8.61,0,15.62-7.01,15.62-15.62v-40.65h40.65c8.61,0,15.62-7.01,15.62-15.62v-28.5c0-8.61-7.01-15.62-15.62-15.62h-16.16c-2.57,0-4.66-2.08-4.66-4.66s2.08-4.66,4.66-4.66h16.16c13.75,0,24.93,11.18,24.93,24.93v28.5c0,13.75-11.18,24.93-24.93,24.93h-31.34v31.34c0,13.75-11.18,24.93-24.93,24.93Z"/>
  <circle class="cls-1" cx="130.36" cy="60.42" r="4.53"/>
</svg>