<?xml version="1.0" encoding="UTF-8"?>
<svg xmlns="http://www.w3.org/2000/svg" xmlns:xlink="http://www.w3.org/1999/xlink" viewBox="0 0 51.19 18.84">
  <defs>
    <style>
      .cls-1 {
        fill: #022728;
      }

      .cls-1, .cls-2 {
        stroke-width: 0px;
      }

      .cls-2 {
        fill: none;
      }

      .cls-3 {
        clip-path: url(#clippath);
      }
    </style>
    <clipPath id="clippath">
      <rect class="cls-2" x="-1017.36" y="-7.71" width="960" height="1903.34"/>
    </clipPath>
  </defs>
  <g id="Layer_1" data-name="Layer 1">
    <g>
      <path class="cls-1" d="M51.1,6.94c-.22-.92-.78-1.69-1.58-2.19-.8-.49-1.74-.65-2.66-.43l-10.87,2.56L22.31.22c-.79-.38-1.72-.25-2.37.33-.81.72-.95,1.94-.32,2.83l4.44,6.33L3.64,14.52l8.31,2.86c.36.12.75-.07.87-.43.12-.36-.07-.75-.43-.87l-3.82-1.31L47.18,5.66c.56-.13,1.13-.04,1.62.26.49.3.83.78.96,1.33.13.56.04,1.14-.27,1.63-.3.49-.77.83-1.33.96l-28.38,6.69c-.37.09-.6.46-.51.82.07.32.36.53.67.53.05,0,.11,0,.16-.02l28.38-6.69c.92-.22,1.69-.77,2.18-1.57.5-.8.65-1.75.43-2.66ZM20.74,2.59c-.23-.32-.17-.76.12-1.02.24-.21.57-.26.86-.12l12.17,5.94-8.38,1.98-4.76-6.78Z"/>
      <path class="cls-1" d="M2.89,13.58L.33,10.09c-.55-.75-.41-1.79.32-2.37.56-.44,1.34-.49,1.95-.12l6.98,4.22-6.71,1.75ZM1.72,8.73c-.08,0-.15.02-.22.07-.15.12-.18.33-.07.48l2,2.73,2.66-.7-4.21-2.54c-.06-.03-.12-.05-.18-.05Z"/>
      <circle class="cls-1" cx="16.06" cy="18.13" r=".71"/>
    </g>
  </g>
  <g id="Imagens">
    <g class="cls-3">
      <image width="6240" height="4160" transform="translate(-1882 -7.72) scale(.46)" xlink:href="Imagem/Familia em Casa.jpg"/>
    </g>
  </g>
</svg>