<?xml version="1.0" encoding="UTF-8"?>
<svg id="Imagens" xmlns="http://www.w3.org/2000/svg" viewBox="0 0 216.34 192.92">
  <defs>
    <style>
      .cls-1 {
        fill: #fff;
        stroke-width: 0px;
      }
    </style>
  </defs>
  <g>
    <path class="cls-1" d="M76.32,106.04c21.4,0,38.81-17.41,38.81-38.81s-17.41-38.81-38.81-38.81-38.81,17.41-38.81,38.81,17.41,38.81,38.81,38.81ZM46.16,67.22c0-16.63,13.53-30.16,30.16-30.16s30.16,13.53,30.16,30.16-13.53,30.16-30.16,30.16-30.16-13.53-30.16-30.16Z"/>
    <path class="cls-1" d="M145.61,173.74c2.33-.6,3.74-2.99,3.14-5.32-8.5-33.03-38.28-56.09-72.43-56.09C35.09,112.33,1.54,145.87,1.54,187.11c0,2.41,1.96,4.37,4.37,4.37s4.37-1.96,4.37-4.37c0-36.42,29.63-66.04,66.04-66.04,30.16,0,56.46,20.37,63.96,49.53.6,2.32,2.99,3.73,5.32,3.14Z"/>
    <path class="cls-1" d="M146.73,182.78c-2.38,0-4.32,1.94-4.32,4.33s1.94,4.33,4.32,4.33,4.33-1.94,4.33-4.33-1.94-4.33-4.33-4.33Z"/>
  </g>
  <g>
    <path class="cls-1" d="M203.82,26.5h-7.45c-1.51,0-2.74,1.23-2.74,2.74s1.23,2.74,2.74,2.74h7.45c3.64,0,6.6,2.96,6.6,6.6v13.13c0,3.64-2.96,6.6-6.6,6.6h-19.33v19.33c0,3.64-2.96,6.6-6.61,6.6h-13.13c-3.64,0-6.61-2.96-6.61-6.6v-19.33h-19.33c-3.64,0-6.6-2.96-6.6-6.6v-13.13c0-3.64,2.96-6.6,6.6-6.6h19.33V12.65c0-3.64,2.96-6.6,6.61-6.6h13.13c3.64,0,6.61,2.96,6.61,6.6v8.17c0,1.51,1.23,2.74,2.74,2.74s2.74-1.23,2.74-2.74v-8.17c0-6.66-5.42-12.08-12.08-12.08h-13.13c-6.66,0-12.08,5.42-12.08,12.08v13.85h-13.85c-6.66,0-12.08,5.42-12.08,12.08v13.13c0,6.66,5.42,12.08,12.08,12.08h13.85v13.85c0,6.66,5.42,12.08,12.08,12.08h13.13c6.66,0,12.08-5.42,12.08-12.08v-13.85h13.85c6.66,0,12.08-5.42,12.08-12.08v-13.13c0-6.66-5.42-12.08-12.08-12.08Z"/>
    <path class="cls-1" d="M187.41,26.32c-1.48,0-2.68,1.2-2.68,2.68s1.2,2.68,2.68,2.68,2.68-1.2,2.68-2.68-1.2-2.68-2.68-2.68Z"/>
  </g>
</svg>