<?xml version="1.0" encoding="UTF-8"?>
<svg id="Layer_1" data-name="Layer 1" xmlns="http://www.w3.org/2000/svg" viewBox="0 0 223.15 174.83">
  <defs>
    <style>
      .cls-1 {
        fill: #fff;
        stroke-width: 0px;
      }
    </style>
  </defs>
  <path class="cls-1" d="M213.07,72.77h-12.99c-6.39-18.82-21.81-34.8-42.9-44.41V.25h-3.82c-10.64,0-19.92,8.03-23.51,19.93-5.4-.69-10.7-1.21-17.09-1.21-49.93,0-90.55,32.9-90.55,73.33,0,.73.05,1.46.07,2.19l-1.32.86c-2.21,1.44-4.99,1.71-7.28.68-5.3-2.39-6.7-6.5-4.43-12.93.7-1.99-.34-4.17-2.33-4.87-1.98-.7-4.17.34-4.87,2.33-3.61,10.2-.51,18.38,8.49,22.43,1.95.88,4.03,1.31,6.11,1.31,2.22,0,4.43-.49,6.5-1.46,3.11,17.51,13.9,33.51,30.71,45.17v13.98c0,5.53,4.5,10.02,10.02,10.02h12.8c5.53,0,10.02-4.5,10.02-10.02v-13.36h52.06v13.36c0,5.53,4.5,10.02,10.02,10.02h12.8c5.53,0,10.02-4.5,10.02-10.02v-13.99c10.4-7.22,18.76-16.31,24.2-26.45,1-1.86.3-4.17-1.56-5.17-1.86-1-4.17-.3-5.17,1.56-4.1,7.64-10.09,14.63-17.47,20.55v-.99c0-2.11-1.71-3.82-3.82-3.82s-3.82,1.71-3.82,3.82v24.49c0,1.32-1.07,2.39-2.39,2.39h-12.8c-1.32,0-2.39-1.07-2.39-2.39v-33.71c0-2.11-1.71-3.82-3.82-3.82s-3.82,1.71-3.82,3.82v12.71h-55.87c-2.11,0-3.82,1.71-3.82,3.82v17.18c0,1.32-1.07,2.39-2.39,2.39h-12.8c-1.32,0-2.39-1.07-2.39-2.39v-16.01h0v-17.7c0-2.11-1.71-3.82-3.82-3.82s-3.82,1.71-3.82,3.82v10.23c-15.35-12.27-24.04-28.78-24.04-46.21,0-36.23,37.2-65.7,82.91-65.7,7.24,0,13.09.72,19.45,1.59l3.57.49.69-3.54c1.39-7.11,5.96-14.68,13.06-16.73v24.96l2.32.99c21.2,9.01,36.41,24.79,41.74,43.28l.8,2.76h18.67c1.37,0,2.45,1.05,2.45,2.39v14.51c0,1.13-.8,2.12-1.9,2.34-2.06.42-3.4,2.44-2.98,4.5.42,2.06,2.45,3.39,4.5,2.98,4.64-.95,8.01-5.08,8.01-9.82v-14.51c0-5.53-4.52-10.02-10.08-10.02Z"/>
  <path class="cls-1" d="M155.22,68.79c0,2.83,2.29,5.12,5.12,5.12s5.12-2.29,5.12-5.12-2.29-5.12-5.12-5.12-5.12,2.29-5.12,5.12Z"/>
  <path class="cls-1" d="M111.29,38.83c-8.29,0-16.02,3.71-21.21,10.18-1.32,1.64-1.06,4.05.59,5.37.7.57,1.55.84,2.39.84,1.12,0,2.23-.49,2.98-1.43,3.74-4.66,9.3-7.32,15.26-7.32s11.36,2.59,15.09,7.12c1.34,1.63,3.75,1.86,5.37.51,1.63-1.34,1.86-3.75.51-5.37-5.19-6.29-12.83-9.89-20.98-9.89Z"/>
  <path class="cls-1" d="M198.08,100.24c-2.05,0-3.72,1.66-3.72,3.72s1.66,3.72,3.72,3.72,3.72-1.66,3.72-3.72-1.66-3.72-3.72-3.72Z"/>
</svg>