<?xml version="1.0" encoding="UTF-8"?>
<svg id="Layer_1" data-name="Layer 1" xmlns="http://www.w3.org/2000/svg" viewBox="0 0 44.92 23.21">
  <defs>
    <style>
      .cls-1 {
        fill: #022728;
        stroke-width: 0px;
      }
    </style>
  </defs>
  <path class="cls-1" d="M29.41,10.26l-6.84,2.24s-.07.04-.08.08l-1.16,2.93c-.03.07,0,.15.07.17.03.02.06.02.09,0l6.04-2.01.68,1.91c.02.05.07.08.12.08h3.07c.07,0,.13-.06.13-.13,0-.02,0-.03,0-.05l-1.95-5.14c-.02-.05-.07-.08-.12-.08h-.04M11.38.91c-.05,0-.1.03-.12.08l-3.47,7.79L4.33,1c-.01-.05-.07-.08-.12-.08H.13c-.07,0-.13.06-.13.13h0v14.49c0,.08.06.13.13.13h2.81c.07,0,.13-.06.13-.13h0V5.05l3.58,8.73c.01.05.06.08.11.09h2.07c.05,0,.1-.03.12-.08l3.58-8.73v10.48c0,.08.06.13.13.14h2.84c.07,0,.13-.06.13-.13V1.06c0-.07-.04-.14-.12-.15h-4.12ZM22.31.91c-.05,0-.1.03-.12.08l-5.47,14.49c-.02.07,0,.15.07.17.01,0,.03,0,.04,0h2.88l1.79-4.48,2.64-7.08,2.13,5.73c.02.07.1.11.16.08l2.51-.84c.07-.02.1-.1.08-.17h0s-2.94-7.93-2.94-7.93c-.01-.05-.07-.08-.12-.08h-3.66ZM31.11,8.28c0,4.65,3.45,7.65,7.67,7.65,2.33.04,4.55-.97,6.1-2.75.02-.02.03-.05.04-.09v-5.92c0-.07-.05-.13-.13-.13h-4.79c-.07,0-.97,2.57-.97,2.57,0,.08.06.13.13.13h2.75v2.26c-.88.74-1.98,1.13-3.12,1.13-2.61,0-4.52-2.05-4.52-4.84s1.89-4.84,4.52-4.84c1.02,0,2.01.38,2.76,1.08.03.03.08.04.12.02l2.72-.9c.07-.02.1-.1.08-.17,0-.02,0-.02-.01-.03-1.14-1.54-2.94-2.78-5.68-2.78-4.21,0-7.67,2.96-7.67,7.63"/>
  <path class="cls-1" d="M24.52,22.38s-.07-.08-.06-.13c0-.09.07-.16.15-.17h0s.07.02.1.04c.25.24.58.36.91.35.4,0,.64-.21.64-.51,0-.28-.14-.43-.76-.57-.67-.15-.97-.38-.97-.87s.4-.81.95-.81c.33-.02.66.08.93.28.04.03.07.08.07.14,0,.09-.07.16-.16.16h0s-.07,0-.1-.03c-.22-.17-.48-.26-.75-.26-.38,0-.61.21-.61.48s.14.44.79.58c.65.14.94.39.94.84,0,.51-.41.84-1,.84-.4,0-.79-.14-1.09-.41M27.44,22.75c-.09,0-.16-.08-.16-.17h0v-2.64c0-.09.07-.17.16-.17h1.8c.08,0,.15.07.15.15s-.07.15-.15.15h-1.64v1.02h1.45c.08,0,.14.08.13.17,0,.07-.06.13-.13.14h-1.45v1.05h1.65c.08,0,.15.07.15.15h0c0,.09-.07.16-.15.16h-1.81ZM29.92,21.26c-.03-.83.61-1.52,1.41-1.55h.04c.36-.02.71.1,1,.32.04.03.07.08.07.14,0,.09-.06.17-.15.17-.04,0-.08-.02-.11-.05-.22-.18-.51-.28-.79-.28-.64,0-1.1.56-1.1,1.22,0,.71.44,1.24,1.15,1.24.31,0,.6-.11.84-.3v-.74h-.78c-.08,0-.14-.07-.14-.15,0-.08.06-.15.14-.15h.91c.09,0,.16.08.16.17h0v.91c0,.08-.04.16-.11.21-.3.24-.67.36-1.05.37-.91,0-1.48-.68-1.48-1.54M33.25,21.5v-1.59c0-.09.07-.17.16-.17s.16.08.16.17h0v1.57c0,.65.34,1.02.88,1.02s.88-.33.88-.99v-1.6c0-.09.07-.17.16-.17h0c.09,0,.16.08.16.17h0v1.56c0,.87-.49,1.33-1.21,1.33s-1.21-.46-1.21-1.3M36.44,19.92c0-.09.07-.17.16-.17h1.09c.3-.02.6.09.82.3.15.16.23.37.22.59,0,.49-.32.78-.77.87l.72.96s.05.08.05.12c0,.09-.07.16-.16.17-.06,0-.12-.04-.15-.09l-.82-1.09h-.84v1.02c0,.09-.07.17-.16.17s-.16-.08-.16-.17h0v-2.68ZM37.66,21.28c.43,0,.75-.23.75-.61s-.28-.59-.74-.59h-.9v1.22l.89-.02ZM39.31,21.26c0-.84.66-1.51,1.48-1.51s1.48.67,1.48,1.51-.66,1.51-1.48,1.51-1.48-.67-1.48-1.51h0M41.92,21.26c.03-.65-.47-1.2-1.11-1.23h-.03c-.63,0-1.14.54-1.14,1.18v.04c-.03.65.47,1.21,1.11,1.23h.04c.63,0,1.14-.53,1.14-1.18,0,0,0-.02,0-.04M42.83,22.38s-.07-.08-.06-.13c0-.09.07-.16.15-.17h0s.07.02.1.04c.25.24.58.36.91.35.4,0,.64-.21.64-.51,0-.28-.14-.43-.76-.57-.67-.15-.97-.38-.97-.87s.4-.81.95-.81c.33-.02.66.09.92.29.04.03.07.08.07.14,0,.09-.07.16-.16.16h0s-.07,0-.1-.03c-.22-.17-.48-.26-.75-.26-.38,0-.62.21-.62.48s.14.44.79.58c.65.14.94.39.94.84,0,.51-.41.84-1,.84-.38.02-.77-.11-1.08-.39"/>
</svg>