<?xml version="1.0" encoding="UTF-8"?>
<svg id="Layer_1" data-name="Layer 1" xmlns="http://www.w3.org/2000/svg" viewBox="0 0 111.32 53.93">
  <defs>
    <style>
      .cls-1 {
        fill: #022728;
        stroke-width: 0px;
      }
    </style>
  </defs>
  <path class="cls-1" d="M72.9,22.84l-16.97,5.55c-.09.04-.17.1-.2.19l-2.88,7.26c-.07.17.02.36.19.42.07.04.15.04.22,0l14.96-4.98,1.69,4.73c.06.13.17.21.3.21h7.61c.19,0,.32-.15.32-.32,0-.04,0-.08-.02-.11l-4.83-12.75c-.06-.13-.17-.21-.3-.21l-.09.02M28.22-.32c-.13,0-.24.08-.3.21l-8.59,19.31L10.73-.11c-.04-.13-.17-.21-.3-.21H.32c-.19,0-.32.15-.32.32v35.92c0,.19.15.32.32.32h6.96c.19,0,.32-.15.32-.32h0V9.94l8.87,21.65c.04.13.15.21.28.23h5.14c.13,0,.24-.08.3-.21l8.87-21.65v25.98c0,.19.15.32.32.34h7.04c.17,0,.32-.15.32-.32V.04c.02-.17-.11-.34-.3-.36h-10.21ZM55.32-.32c-.13,0-.26.08-.3.21l-13.57,35.92c-.06.17.02.36.19.42.04.02.07.02.11.02h7.13l4.44-11.1,6.55-17.56,5.29,14.21c.06.17.24.27.39.21l6.22-2.07c.17-.06.26-.25.2-.42v-.02L64.69-.13c-.04-.13-.17-.21-.3-.21h-9.08v.02ZM77.13,17.94c0,11.52,8.56,18.97,19.01,18.97,5.77.1,11.29-2.39,15.13-6.82.06-.06.07-.13.09-.23v-14.67c0-.17-.13-.32-.32-.32h-11.88c-.19,0-2.41,6.37-2.41,6.37,0,.19.15.32.32.32h6.81v5.61c-2.17,1.82-4.9,2.81-7.72,2.79-6.48,0-11.19-5.09-11.19-12.01s4.7-12.01,11.19-12.01c2.52-.02,4.97.93,6.85,2.68.07.08.2.1.3.06l6.74-2.24c.17-.06.26-.25.2-.42-.02-.04-.02-.06-.04-.08-2.82-3.82-7.3-6.9-14.07-6.9-10.43,0-19.01,7.34-19.01,18.91"/>
  <path class="cls-1" d="M60.77,52.91c-.11-.08-.17-.19-.15-.32,0-.23.17-.4.37-.42h.02c.09,0,.19.04.24.1.61.59,1.43.89,2.26.87.98,0,1.6-.51,1.6-1.25,0-.68-.35-1.06-1.87-1.41-1.65-.36-2.41-.93-2.41-2.15s.98-2.01,2.36-2.01c.82-.06,1.63.19,2.3.68.11.08.17.21.19.34,0,.23-.17.4-.39.4h0c-.09,0-.17-.02-.24-.08-.54-.42-1.19-.65-1.86-.65-.95,0-1.52.51-1.52,1.2s.35,1.1,1.97,1.44c1.61.34,2.34.97,2.34,2.09,0,1.27-1.02,2.09-2.47,2.09-1,.02-1.97-.34-2.71-1.01M68.01,53.8c-.22,0-.41-.19-.41-.42h0v-6.56c0-.23.17-.42.39-.42h4.47c.2,0,.37.17.37.38s-.17.38-.37.38h-4.07v2.53h3.6c.2.02.35.21.33.42-.02.17-.15.32-.33.34h-3.6v2.6h4.1c.2,0,.37.17.37.36v.02c0,.21-.17.38-.37.38h0l-4.49-.02ZM74.18,50.11c-.07-2.05,1.5-3.76,3.49-3.84h.11c.89-.04,1.76.25,2.47.8.11.08.17.21.17.34.02.23-.15.42-.37.42-.11,0-.2-.04-.28-.11-.56-.46-1.26-.7-1.97-.68-1.6,0-2.73,1.39-2.73,3.02,0,1.77,1.1,3.08,2.84,3.08.76,0,1.49-.27,2.08-.74v-1.84h-1.93c-.2,0-.35-.17-.35-.36,0-.21.15-.38.35-.38h2.26c.22,0,.41.19.41.42h0v2.26c0,.21-.09.4-.28.51-.74.59-1.67.89-2.6.91-2.26,0-3.66-1.69-3.66-3.82M82.42,50.7v-3.93c0-.23.19-.42.41-.42s.41.19.41.42h0v3.9c0,1.62.84,2.53,2.19,2.53s2.17-.82,2.17-2.45v-3.97c0-.23.17-.42.39-.42h.02c.22,0,.41.19.41.42h0v3.88c0,2.17-1.21,3.29-3.01,3.29s-2.99-1.14-2.99-3.23M90.33,46.81c0-.23.17-.42.39-.42h2.69c.74-.04,1.49.23,2.04.74.37.4.58.91.56,1.46,0,1.22-.8,1.94-1.91,2.15l1.78,2.38c.07.08.13.19.13.3-.02.23-.19.4-.41.42-.15,0-.3-.1-.37-.23l-2.02-2.7h-2.08v2.53c0,.23-.19.42-.41.42s-.41-.19-.41-.42h0l.02-6.63ZM93.35,50.17c1.08,0,1.86-.57,1.86-1.52s-.69-1.46-1.84-1.46h-2.23v3.02l2.21-.04ZM97.44,50.11c0-2.07,1.63-3.74,3.66-3.74s3.66,1.67,3.66,3.74-1.63,3.74-3.66,3.74-3.66-1.67-3.66-3.74h0M103.91,50.11c.07-1.62-1.17-2.98-2.75-3.06h-.07c-1.56.02-2.82,1.33-2.82,2.93v.1c-.07,1.62,1.17,3,2.75,3.06h.09c1.56-.02,2.82-1.31,2.82-2.93,0-.02,0-.04-.02-.1M106.18,52.91c-.11-.08-.17-.19-.15-.32,0-.23.17-.4.37-.42h.02c.09,0,.19.04.24.1.61.59,1.43.89,2.26.87.98,0,1.6-.51,1.6-1.25,0-.68-.35-1.06-1.87-1.41-1.65-.36-2.41-.93-2.41-2.15s.98-2.01,2.36-2.01c.82-.04,1.63.23,2.28.72.11.08.17.21.17.34,0,.23-.17.4-.39.4h0c-.09,0-.17-.02-.24-.08-.54-.42-1.19-.65-1.86-.65-.95,0-1.54.51-1.54,1.2s.35,1.1,1.97,1.44c1.61.34,2.34.97,2.34,2.09,0,1.27-1.02,2.09-2.47,2.09-.95.06-1.91-.29-2.67-.97"/>
</svg>