<?xml version="1.0" encoding="UTF-8"?>
<svg id="Layer_1" data-name="Layer 1" xmlns="http://www.w3.org/2000/svg" viewBox="0 0 146.85 40.13">
  <defs>
    <style>
      .cls-1 {
        fill: #022728;
        stroke-width: 0px;
      }
    </style>
  </defs>
  <g id="g244-0-3">
    <path id="path246-6-7" class="cls-1" d="M18.03,8.32c2.35,5.01-1.53,9.73-1.53,9.73-6.09,7.74,1.59,13.59,1.59,13.59-.93-4.84,1.16-7.55,2.04-8.48.23-.24.34-.41.34-.41,6.68-7.57-2.44-14.44-2.44-14.44"/>
  </g>
  <g id="g248-6-4">
    <path id="path250-0-8" class="cls-1" d="M140.49,17.73v12.1c.05,2.44.05,3.98,3.56,3.98,1.17,0,1.7-.05,2.65-.16v5.15c-2.55.69-4.83.85-6.1.85-7.91,0-7.91-4.99-7.91-7.22V4.41h5.8c1.1,0,2,.89,2,1.99h0v3.51h0v2.61h6.37v5.2h-6.37ZM127.71,24.68v14.48h-6.01c-1.1,0-2-.89-2-1.99h0s0-14.67,0-14.67c0-1.11,0-2.07-.42-2.92-.59-1.17-1.8-2.28-3.82-2.28-1.7,0-3.24.8-4.08,2.07-.48.69-.95,2.02-.95,4.09v15.7h-7.91v-22.02c0-.1,0-3.02-.16-4.88h1.16s4.37,0,4.37,0c1.1,0,2.05.9,2.11,2h0s0,0,0,0l.12,2.03c.75-1.23,2.87-4.66,8.69-4.66,5.26,0,7.48,3.19,8.17,5.04.59,1.65.75,3.03.75,8.01M83.82,24.05v15.12h-5.91c-1.1,0-2-.89-2-1.99h0v-13.76c0-2.86-.42-6.05-4.51-6.05-4.72,0-4.83,4.41-4.83,8.38v13.42h-7.91v-15.92c0-2.07-.05-5.89-4.41-5.89-4.93,0-4.93,4.25-4.93,6.05v15.76h-7.9v-21.75c0-1.7-.11-3.34-.27-5.04h.5s5.09,0,5.09,0c1.1,0,2.06.9,2.15,2h0s0,0,0,0l.11,1.44c.85-1.17,2.92-4.03,8.28-4.03,6.15,0,7.91,3.77,8.44,5.04,2.23-4.3,5.84-4.99,8.59-4.99,5.41,0,7.59,3.24,8.17,4.3,1.43,2.33,1.33,5.57,1.33,7.91M89.18,12.32h7.85v26.85h-7.85V12.32ZM8.59,20.28c0-4.35.64-8.49,2.81-11.14,1.54-1.96,3.98-3.24,7.06-3.24,3.93,0,7.16,2.07,8.76,6.79.8,2.33.96,4.99.96,6.85,0,6.1-1.33,9.07-2.6,10.98-1.54,2.39-3.82,3.56-7.16,3.56-3.82,0-5.78-1.49-6.95-3.08-2.28-2.97-2.87-7.06-2.87-10.72M0,20.55c0,3.5.53,9.87,4.72,14.32,3.5,3.66,8.54,5.26,13.58,5.26,3.18,0,9.39-.69,13.64-5.47,3.13-3.5,4.83-9.44,4.83-15.01,0-3.77-.79-9.76-4.88-14.43C28.12.97,22.5,0,18.41,0,4.62,0,0,10.36,0,20.55M97.41,4.3c0,2.37-1.92,4.3-4.3,4.3s-4.29-1.92-4.29-4.3,1.93-4.3,4.29-4.3,4.3,1.92,4.3,4.3"/>
  </g>
</svg>