<?xml version="1.0" encoding="UTF-8"?>
<svg id="Layer_1" data-name="Layer 1" xmlns="http://www.w3.org/2000/svg" viewBox="0 0 163.57 52.12">
  <defs>
    <style>
      .cls-1 {
        fill: #022728;
        stroke-width: 0px;
      }
    </style>
  </defs>
  <path class="cls-1" d="M161.02,0h-47.01c-1.41,0-2.56,1.15-2.56,2.56v47.01c0,1.41,1.15,2.55,2.56,2.55h47.01c1.4,0,2.56-1.15,2.56-2.55V2.56c0-1.41-1.15-2.56-2.56-2.56ZM160.08,31.07c-1.89-2.39-6.5-2.89-9-2.89-10.41,0-20.36,1.93-29.52,5.47.08-2.71,0-5.43-.3-8.12,6.97-2.03,19.28-3.67,27.38-2.96,7.57.66,10.42,4.88,11.45,8.5ZM156.7,24.16h0c-2.11-1.98-3.72-3.41-10.12-4.33-6.4-.92-19.93.47-25.92,1.98-.43-2.37-1.01-4.7-1.73-6.99,4.1-.72,8.32-1.1,12.64-1.1s8.3.36,12.3,1.04c8.46,1.45,11.15,6.19,12.83,9.41h0ZM114.35,4.45c21.78-.57,34.02,8.97,36.46,11.6-2.12-1.77-6.21-3.27-9.74-3.95-4.33-.83-8.8-1.26-13.4-1.26-3.36,0-6.66.23-9.89.69-.82-2.15-2.35-5.03-3.43-7.07ZM156.7,44.87h0s0,0,0,0c3.5-7.24,2.68-8.51-4.2-7.67-10.69,1.31-24.18,5.89-34.36,11.38,1.86-3.59,2.76-7.21,3.12-10.48,9.83-4.32,20.65-6.8,32.02-7.03,11.91-.24,7.44,8.87,3.41,13.79,0,0,0,0,0,0Z"/>
  <g>
    <path id="path12" class="cls-1" d="M68.12,30.5c1.47-.21,3.67-.38,6.1-.38,3.01,0,5.11.41,6.56,1.42,1.2.86,1.86,2.67,1.86,4.34,0,2.31-1.49,3.95-3.23,4.52v.08c.87,1.21,6.04,7.86,6.04,7.86h-5.06l-5.44-7.11h-2.29v7.11h-4.54v-17.84ZM72.66,38.28h1.8c2.29,0,3.64-1.02,3.64-2.61s-1.26-2.49-3.37-2.52c-1.11,0-1.75.08-2.07.13v5h0ZM.93,44.14c1.24.56,3.13,1.12,5.08,1.12,2.11,0,3.22-.78,3.22-1.96s-.96-1.78-3.4-2.56c-3.37-1.05-5.56-2.71-5.56-5.34,0-3.09,2.89-5.46,7.67-5.46,2.29,0,3.97.43,5.18.92l-1.02,3.3c-.81-.35-2.26-.86-4.25-.86s-2.95.81-2.95,1.75c0,1.16,1.15,1.67,3.76,2.55,3.59,1.19,5.27,2.85,5.27,5.4,0,3.03-2.62,5.64-8.18,5.64-2.32,0-4.6-.56-5.75-1.13l.93-3.38ZM27.6,40.7h-7.47v4.3h8.34v3.36h-12.94v-18.11h12.52v3.36h-7.91v3.76h7.46v3.33h0ZM47.03,47.53c-1.42.43-4.09,1.02-6.77,1.02-3.7,0-6.38-.84-8.25-2.44-1.87-1.56-2.89-3.92-2.86-6.57.03-6.02,4.94-9.47,11.59-9.47,2.62,0,4.63.46,5.63.89l-.96,3.27c-1.11-.43-2.5-.78-4.73-.78-3.82,0-6.71,1.94-6.71,5.86s2.62,5.94,6.38,5.94c1.05,0,1.9-.11,2.26-.27v-6.98h4.42v9.53h0ZM53.68,30.25v10.42c0,3.11,1.32,4.7,3.67,4.7s3.73-1.5,3.73-4.7v-10.42h4.57v10.15c0,5.59-3.16,8.25-8.46,8.25s-8.13-2.53-8.13-8.3v-10.1h4.61s0,0,0,0ZM103.36,39.12c0,5.93-4.03,9.53-9.96,9.53s-9.54-4.06-9.54-9.21c0-5.42,3.88-9.49,9.87-9.49,6.23,0,9.63,4.17,9.63,9.17ZM88.7,39.36c0,3.55,1.87,6.05,4.93,6.05s4.88-2.63,4.88-6.15c0-3.25-1.74-6.05-4.91-6.05-3.1,0-4.9,2.64-4.9,6.16h0Z"/>
    <path id="path14" class="cls-1" d="M16.03,5.12c-1.63-1.17-4.06-1.73-7.43-1.73-2.92,0-5.39.14-7.35.44v21.37h5.14v-7.91l.22.03c.49.06,1.15.1,1.87.1,3.4,0,6.13-.79,7.9-2.28,1.42-1.2,2.2-3.01,2.2-5.08,0-2-.93-3.8-2.55-4.94ZM8.45,13.99c-.88,0-1.45-.04-1.91-.14l-.16-.04v-6.82l.14-.04c.26-.06.98-.2,2.36-.2,2.85,0,4.55,1.28,4.55,3.43,0,2.34-1.91,3.8-5,3.8ZM31.38,3.2c-6.96,0-11.82,4.66-11.82,11.35s4.59,11.02,11.42,11.02c7.25,0,11.93-4.48,11.93-11.41,0-5.45-3.56-10.95-11.52-10.95ZM31.27,21.99c-3.77,0-6.2-2.97-6.2-7.55s2.48-7.68,6.17-7.68,6.16,3.11,6.16,7.55c0,4.67-2.4,7.68-6.13,7.68ZM58.52,15.93l-.04-.05v-.3l.14-.05c1.76-.56,3.8-2.3,3.8-5.32,0-2.13-.88-4.19-2.19-5.13-1.66-1.17-4.09-1.7-7.87-1.7-2.64,0-5.27.16-7.24.43v21.37h5.14v-8.66h3.09s6.51,8.51,6.63,8.66h5.66c-1.17-1.5-6.19-7.97-7.12-9.26ZM52.66,13.33h-2.39v-6.44l.16-.03c.68-.11,1.55-.17,2.57-.17,2.77.04,4.29,1.2,4.29,3.27,0,2.08-1.77,3.36-4.63,3.36ZM81.73,3.55v3.79h-6.74v17.85h-5.21V7.35h-6.63v-3.79c.39,0,18.2,0,18.58,0ZM92.88,3.2c-6.95,0-11.82,4.66-11.82,11.35s4.59,11.02,11.42,11.02c7.24,0,11.92-4.48,11.92-11.41,0-5.45-3.56-10.95-11.53-10.95h0ZM92.77,21.99c-3.77,0-6.2-2.97-6.2-7.55s2.47-7.68,6.17-7.68,6.17,3.11,6.17,7.55c0,4.67-2.41,7.68-6.14,7.68Z"/>
  </g>
</svg>