<?xml version="1.0" encoding="UTF-8"?>
<svg id="Layer_1" data-name="Layer 1" xmlns="http://www.w3.org/2000/svg" viewBox="0 0 141.73 141.73">
  <defs>
    <style>
      .cls-1 {
        fill: #fff;
        stroke-width: 0px;
      }
    </style>
  </defs>
  <g>
    <path class="cls-1" d="M70.87,75.01c9.01,0,16.34-7.33,16.34-16.34s-7.33-16.34-16.34-16.34-16.34,7.33-16.34,16.34,7.33,16.34,16.34,16.34ZM58.18,58.67c0-7,5.7-12.7,12.7-12.7s12.7,5.7,12.7,12.7-5.7,12.7-12.7,12.7-12.7-5.7-12.7-12.7Z"/>
    <path class="cls-1" d="M100.04,103.52c.98-.25,1.58-1.26,1.32-2.24-3.58-13.91-16.12-23.62-30.49-23.62-17.36,0-31.48,14.12-31.48,31.48,0,1.01.83,1.84,1.84,1.84s1.84-.83,1.84-1.84c0-15.33,12.47-27.8,27.81-27.8,12.7,0,23.77,8.58,26.93,20.85.25.98,1.26,1.57,2.24,1.32Z"/>
    <path class="cls-1" d="M100.52,107.33c-1,0-1.82.82-1.82,1.82s.82,1.82,1.82,1.82,1.82-.82,1.82-1.82-.82-1.82-1.82-1.82Z"/>
  </g>
  <g>
    <path class="cls-1" d="M124.55,41.53h-3.14c-.64,0-1.15.52-1.15,1.15s.52,1.15,1.15,1.15h3.14c1.53,0,2.78,1.25,2.78,2.78v5.53c0,1.53-1.25,2.78-2.78,2.78h-8.14v8.14c0,1.53-1.25,2.78-2.78,2.78h-5.53c-1.53,0-2.78-1.25-2.78-2.78v-8.14h-8.14c-1.53,0-2.78-1.25-2.78-2.78v-5.53c0-1.53,1.25-2.78,2.78-2.78h8.14v-8.14c0-1.53,1.25-2.78,2.78-2.78h5.53c1.53,0,2.78,1.25,2.78,2.78v3.44c0,.64.52,1.15,1.15,1.15s1.15-.52,1.15-1.15v-3.44c0-2.81-2.28-5.09-5.09-5.09h-5.53c-2.81,0-5.09,2.28-5.09,5.09v5.83h-5.83c-2.8,0-5.09,2.28-5.09,5.09v5.53c0,2.81,2.28,5.09,5.09,5.09h5.83v5.83c0,2.81,2.28,5.09,5.09,5.09h5.53c2.81,0,5.09-2.28,5.09-5.09v-5.83h5.83c2.8,0,5.09-2.28,5.09-5.09v-5.53c0-2.81-2.28-5.09-5.09-5.09Z"/>
    <path class="cls-1" d="M117.64,41.45c-.62,0-1.13.51-1.13,1.13s.51,1.13,1.13,1.13,1.13-.51,1.13-1.13-.51-1.13-1.13-1.13Z"/>
  </g>
</svg>