<?xml version="1.0" encoding="UTF-8"?>
<svg id="Layer_1" data-name="Layer 1" xmlns="http://www.w3.org/2000/svg" viewBox="0 0 30.62 30.62">
  <defs>
    <style>
      .cls-1 {
        fill: #022728;
      }

      .cls-1, .cls-2 {
        stroke-width: 0px;
      }

      .cls-2 {
        fill: #d98e04;
      }
    </style>
  </defs>
  <circle class="cls-2" cx="15.31" cy="15.31" r="15.31"/>
  <path class="cls-1" d="M21.55,14.6l-4.74-3.64c-.27-.21-.66-.16-.86.11-.21.27-.16.66.11.86l3.6,2.76h-10.31c-.34,0-.62.28-.62.62s.28.62.62.62h10.31l-3.6,2.76c-.27.21-.32.59-.11.86.12.16.3.24.49.24.13,0,.26-.04.37-.13l4.74-3.64c.22-.17.35-.43.35-.71s-.13-.54-.35-.71Z"/>
</svg>