<?xml version="1.0" encoding="UTF-8"?>
<svg id="Layer_1" data-name="Layer 1" xmlns="http://www.w3.org/2000/svg" viewBox="0 0 151.03 56.59">
  <defs>
    <style>
      .cls-1 {
        fill: #022728;
        stroke-width: 0px;
      }
    </style>
  </defs>
  <g id="layer1">
    <g id="g432">
      <path id="path434" class="cls-1" d="M114.63,53.78c.02.9.68,1.71,2.24,1.71s2.19-.69,2.19-1.7-1.06-1.35-2.36-1.76c-1.69-.52-3.02-1.07-3.02-2.69s1.27-2.65,3.15-2.65,3.18.94,3.2,2.67h-1.16c-.02-1.1-.91-1.6-2.04-1.6s-1.98.56-1.98,1.48c0,.85.79,1.22,2.25,1.63,1.97.53,3.12,1.31,3.12,2.91s-.92,2.79-3.31,2.79c-2.17,0-3.42-1.24-3.44-2.8h1.15Z"/>
    </g>
    <g id="g438">
      <path id="path440" class="cls-1" d="M125.68,52.85c-.43-.06-.88-.1-1.3-.1-1.06,0-1.95.29-1.95,1.45s.8,1.45,1.8,1.45c.52,0,1.05-.13,1.45-.35v-2.45ZM121.74,50.24c.46-.42,1.16-.77,2.21-.77,2.47,0,2.89,1.39,2.89,2.87v4.13h-.91l-.03-.36c-.53.31-1.21.47-1.87.47-1.42-.03-2.69-.62-2.69-2.37s1.42-2.28,2.85-2.28c.46,0,.98.05,1.48.12-.02-.85-.29-1.62-1.84-1.62-.59,0-1.1.15-1.5.41l-.59-.59Z"/>
    </g>
    <g id="g444">
      <path id="path446" class="cls-1" d="M130.48,48.48l.75-1.63h1.14l-1.08,1.63h-.8ZM132.91,56.44l-.03-.36c-.56.31-1.23.47-1.88.47-1.34,0-2.62-.64-2.62-2.36v-4.61h1.16v4.54c0,1.07.64,1.52,1.61,1.52.53,0,1.07-.12,1.5-.32v-5.74h1.16v6.86h-.91Z"/>
    </g>
    <g id="g450">
      <path id="path452" class="cls-1" d="M139.49,50.68c-.38-.16-.96-.3-1.54-.3-.95,0-1.58.41-1.58,1.55v2.29c0,.96.66,1.42,1.64,1.42.53,0,1.06-.12,1.48-.32v-4.63ZM139.74,56.44l-.03-.36c-.53.31-1.21.47-1.86.47-1.32,0-2.63-.62-2.63-2.35v-2.35c0-1.82,1.29-2.39,2.53-2.39.61,0,1.26.15,1.74.36v-2.97h1.16v9.58h-.91Z"/>
    </g>
    <g id="g456">
      <path id="path458" class="cls-1" d="M146.32,51.95c0-1.18-.73-1.57-1.49-1.57-.82,0-1.55.41-1.55,1.59v.68h3.04v-.7ZM142.12,52.01c0-1.61,1.02-2.55,2.73-2.55s2.57,1,2.57,2.53v1.43h-4.17v.93c0,.94.61,1.33,1.51,1.33.65,0,1.24-.19,1.7-.52l.64.54c-.57.53-1.35.88-2.43.88-1.72,0-2.55-.99-2.55-2.34v-2.22Z"/>
    </g>
    <g id="g462">
      <path id="path464" class="cls-1" d="M28.85,25.24c-.38.4-.57.88-.57,1.44v8.14c0,.96-.29,1.65-.87,2.09-.58.44-1.23.66-1.95.66s-1.36-.22-1.92-.66c-.56-.44-.84-1.14-.84-2.09v-10.18h-4.19v9.34c0,2.75.79,4.44,2.13,5.45,1.38,1.04,2.93,1.44,4.7,1.44,1.76,0,3.28-.4,4.84-1.29,1.62-.92,2.22-2.76,2.22-5.59v-9.34h-2.1c-.6,0-1.09.2-1.47.6h0Z"/>
    </g>
    <g id="g468">
      <path id="path470" class="cls-1" d="M46.94,32.84l2.87-8.74,2.87,8.74h-5.75ZM48.85,19.97c-1,0-1.68.46-2.03,1.38l-6.82,19.21h4.49l1.32-4.25h8.02l1.38,4.25h4.49l-7.48-20.59h-3.35Z"/>
    </g>
    <g id="g474">
      <path id="path476" class="cls-1" d="M82.5,25.66c-1.37-1.06-3.09-1.38-4.85-1.38-.88.04-1.73.17-2.54.39-.82.22-1.52.59-2.13,1.11-.72-.6-1.52-1-2.39-1.2-.88-.2-1.78-.3-2.69-.3-1.72.08-3.44.53-4.7,1.5-1.34,1.03-2.13,2.73-2.13,5.45l-.02,9.36,4.21-.02v-10.17c0-.96.28-1.66.84-2.09.56-.44,1.2-.66,1.92-.66s1.36.22,1.94.66c.58.44.87,1.14.87,2.09v10.17h4.13v-10.17c0-.96.29-1.66.87-2.09.58-.44,1.23-.66,1.94-.66s1.37.22,1.95.66c.58.44.87,1.14.87,2.09v8.14c0,.6.17,1.11.55,1.49.38.38.87.57,1.47.57h2.1l.02-9.36c0-2.79-.84-4.5-2.21-5.57h0Z"/>
    </g>
    <g id="g480">
      <path id="path482" class="cls-1" d="M94.8,22.86l3.04-3.25h-2.69c-.36,0-.66.05-.87.21-.18.13-.18.15-.39.48l-1.68,2.91s.71-.04,1.75-.04c.63,0,.83-.3.83-.3h0Z"/>
    </g>
    <g id="g486">
      <path id="path488" class="cls-1" d="M90.54,30.99c.04-1.04.34-1.83.9-2.39.56-.56,1.28-.84,2.15-.84.96,0,1.7.28,2.21.84.48.52.76,1.32.84,2.39h-6.1ZM93.47,24.28c-2.28,0-4.05.74-5.33,2.22-1.24,1.44-1.86,3.43-1.86,5.98s.64,4.73,1.92,6.16c1.28,1.48,3.05,2.22,5.33,2.22,1.88,0,3.43-.46,4.67-1.38,1.24-.88,2.08-2.16,2.51-3.83h-2.99c-.48,0-.85.01-1.12.38,0,0-.28.5-1.02.96-.74.46-1.85.46-1.86.46-1.02,0-1.77-.38-2.28-1.02-.56-.6-.86-1.52-.9-2.75h10.26s.1-.01.11-.09c0-.08.04-.54.05-.99.04-2.63-.64-4.69-1.92-6.17-1.32-1.44-3.17-2.15-5.56-2.15h0Z"/>
    </g>
    <g id="g492">
      <path id="path494" class="cls-1" d="M111.12,24.64c-.12,0-.44,0-.52,0-1.08,0-2.12.14-3.14.42-1.02.28-1.9.72-2.66,1.32-.8.64-1.43,1.49-1.89,2.55-.46,1.06-.69,2.36-.69,3.92v7.72h4.19v-8.2c0-1.2.28-2.07.84-2.63.56-.56,1.42-.84,2.57-.84h1.31s.07,0,.07-.07c0-.07,0-4.15,0-4.15,0-.02,0-.04-.08-.04h0Z"/>
    </g>
    <g id="g498">
      <path id="path500" class="cls-1" d="M102.91,28.92c-.46,1.06-.69,2.36-.69,3.92v7.72l.69-11.64Z"/>
    </g>
    <g id="g504">
      <path id="path506" class="cls-1" d="M129.09,35.98c-.24.2-.56.66-1.14,1.02-.49.25-1.06.42-1.73.42-1.04,0-1.82-.32-2.33-.96-.72-.76-1.08-2.05-1.08-3.89s.36-3.15,1.08-3.95c.56-.56,1.28-.84,2.16-.84.96,0,1.7.28,2.21.84.2.2.31.3.46.55.1.17.17.19.26.19h3.97c.06,0,.02-.14.02-.14-.32-1.06-.8-1.93-1.47-2.75-1.32-1.44-3.17-2.15-5.57-2.15s-4.05.74-5.33,2.21c-1.24,1.44-1.85,3.43-1.85,5.99s.64,4.73,1.92,6.16c1.28,1.48,3.05,2.21,5.32,2.21,1.88,0,3.43-.46,4.67-1.38,1.24-.88,2.07-2.15,2.51-3.83h-2.99c-.48,0-.84.1-1.08.3h0Z"/>
    </g>
    <g id="g510">
      <path id="path512" class="cls-1" d="M36.65,19.98s-.06,0-.09,0c-1.1,0-2,.85-2.08,1.93v18.66s4.18,0,4.18,0v-20.59h-1.97s-.02,0-.04,0h0Z"/>
    </g>
    <g id="g516">
      <path id="path518" class="cls-1" d="M14.24,29.97c-.56-.24-1.12-.48-1.67-.72-.32-.08-.75-.19-1.29-.33-.54-.14-1.17-.33-1.88-.57-.32-.04-.82-.16-1.5-.36-2.32-.52-3.47-1.32-3.47-2.39,0-.8.3-1.42.9-1.86.52-.44,1.38-.66,2.57-.66s2.21.26,2.93.78c.36.28.64.62.84,1.02.4.84,1.06,1.26,1.98,1.26h2.39c-.08-2-.8-3.61-2.16-4.85-1.32-1.12-3.19-1.68-5.63-1.68-2.59,0-4.57.54-5.92,1.62-1.36,1.12-2.03,2.65-2.03,4.61,0,1.12.2,2.03.6,2.75.32.84.88,1.48,1.67,1.92.68.48,2.04.94,4.07,1.38l.48.12.12.06c3.59.8,5.39,1.84,5.39,3.11,0,.84-.32,1.48-.96,1.91-.64.44-1.58.66-2.81.66-1.4,0-2.49-.28-3.29-.84-.76-.48-1.22-1.32-1.38-2.51H0c.12,2.27.92,3.99,2.39,5.15,1.35,1.16,3.39,1.73,6.11,1.73s4.67-.56,6.1-1.68c1.44-1.2,2.15-2.87,2.15-5.03,0-1-.22-1.91-.66-2.75-.44-.76-1.06-1.38-1.86-1.86h0Z"/>
    </g>
    <g id="g522">
      <path id="path524" class="cls-1" d="M143.51,36.91c-.66.68-1.07.73-2.89.73-.77,0-1.18-.07-1.71-.59-.32-.32-.56-.73-.56-1.33,0-.44.11-.95.46-1.31.39-.41.8-.57,1.53-.77l1.39-.3c1-.24,1.78-.52,2.34-.79v1.73c.01,1.11.05,2.01-.55,2.63h0ZM146.24,25.51c-1.13-.75-2.81-1.13-5.06-1.13-2.01,0-3.55.46-4.63,1.37-.96.79-1.53,1.8-1.69,3.03h4.03c.2-.43.52-.73.96-.89.44-.16.94-.24,1.5-.24.52,0,1.12.08,1.72.25.65.18.93.58.93,1.18,0,.79-.88,1.31-2.65,1.54l-1.69.24c-1.52.24-2.78.71-3.76,1.43-.98.71-1.47,1.9-1.47,3.56,0,1.78.59,3.1,1.67,3.87,1.08.77,2.69,1.01,4.13,1.01.98,0,1.09,0,2.15-.06.77-.05,1.56-.27,2.29-.58.26.16.54.31.85.41.42.14,2.42.08,2.42.08l.02-6.06c0-.09.01-.18.01-.27v-5.41c0-1.42-.58-2.53-1.74-3.33h0Z"/>
    </g>
    <g id="g528">
      <path id="path530" class="cls-1" d="M117.09,19.76h-2.18c-.56,0-1.05.2-1.45.61-.4.4-.61.89-.61,1.45v1.27h4.23v-3.33Z"/>
    </g>
    <g id="g534">
      <path id="path536" class="cls-1" d="M117.03,24.48s-2.12,0-2.12,0c-.56,0-1.05.2-1.45.61-.4.4-.61.89-.61,1.45v14.03h4.23v-16.03s0-.06-.05-.06h0Z"/>
    </g>
    <g id="g540">
      <path id="path542" class="cls-1" d="M108.9,1.66c10.27-2.3,19.46,1.13,30.75,1.98,7.96.6,11.29-.91,11.29-.91,0,0,.24,0-.1.23-1.56,1.09-5.74,2.55-16.66,2.02-20.73-1-23.75,1.16-33.94,4.66-8.78,3.02-12.93,3.41-12.93,3.41,0,0,.51-.32,1.01-.64,3.65-2.31,12.44-8.95,20.57-10.77h0Z"/>
    </g>
    <g id="g546">
      <path id="path548" class="cls-1" d="M2.17,2.41c-.24.29,8.22,5.66,23.85,5.48,18.01-.21,27.45-7.15,36.47,1.07,13.92,12.68,26.52,3.02,26.52,3.02,0,0-1.7.88-13.48-.14C56.94,10.24,62.88-1.99,46.99.28c-8.6,1.23-13.15,3.6-20.47,4.81C11.65,7.56,2.44,2.08,2.17,2.41h0Z"/>
    </g>
  </g>
</svg>